<mxfile host="65bd71144e">
    <diagram id="jOgcOfammLls_70D6H9h" name="ページ1">
        <mxGraphModel dx="877" dy="818" grid="1" gridSize="10" guides="1" tooltips="1" connect="1" arrows="1" fold="1" page="1" pageScale="1" pageWidth="827" pageHeight="1169" math="0" shadow="0">
            <root>
                <mxCell id="0"/>
                <mxCell id="1" parent="0"/>
                <mxCell id="28" value="" style="ellipse;shape=doubleEllipse;whiteSpace=wrap;html=1;fillColor=none;" vertex="1" parent="1">
                    <mxGeometry x="195" y="590" width="25" height="150" as="geometry"/>
                </mxCell>
                <mxCell id="4" value="" style="rounded=0;whiteSpace=wrap;html=1;fillColor=none;" vertex="1" parent="1">
                    <mxGeometry x="310" y="450" width="470" height="320" as="geometry"/>
                </mxCell>
                <mxCell id="5" value="" style="rounded=0;whiteSpace=wrap;html=1;fillColor=none;" vertex="1" parent="1">
                    <mxGeometry x="40" y="450" width="70" height="320" as="geometry"/>
                </mxCell>
                <mxCell id="6" value="USB Host" style="text;html=1;strokeColor=none;fillColor=none;align=left;verticalAlign=middle;whiteSpace=wrap;rounded=0;" vertex="1" parent="1">
                    <mxGeometry x="40" y="420" width="60" height="30" as="geometry"/>
                </mxCell>
                <mxCell id="7" value="USB Device" style="text;html=1;strokeColor=none;fillColor=none;align=left;verticalAlign=middle;whiteSpace=wrap;rounded=0;" vertex="1" parent="1">
                    <mxGeometry x="310" y="420" width="130" height="30" as="geometry"/>
                </mxCell>
                <mxCell id="36" style="edgeStyle=none;html=1;entryX=0.079;entryY=0.646;entryDx=0;entryDy=0;entryPerimeter=0;startArrow=classic;startFill=1;" edge="1" parent="1" source="10" target="24">
                    <mxGeometry relative="1" as="geometry"/>
                </mxCell>
                <mxCell id="10" value="" style="rounded=0;whiteSpace=wrap;html=1;fillColor=none;" vertex="1" parent="1">
                    <mxGeometry x="350" y="570" width="280" height="180" as="geometry"/>
                </mxCell>
                <mxCell id="11" value="Interface: MSC Bulk-Only Transport" style="text;html=1;strokeColor=none;fillColor=none;align=left;verticalAlign=middle;whiteSpace=wrap;rounded=0;" vertex="1" parent="1">
                    <mxGeometry x="350" y="540" width="230" height="30" as="geometry"/>
                </mxCell>
                <mxCell id="13" value="EndPoint0: Control Transfer" style="text;html=1;strokeColor=none;fillColor=none;align=left;verticalAlign=middle;whiteSpace=wrap;rounded=0;" vertex="1" parent="1">
                    <mxGeometry x="390" y="460" width="230" height="30" as="geometry"/>
                </mxCell>
                <mxCell id="14" value="EndPoint1: Bulk Transfer (Out)" style="text;html=1;strokeColor=none;fillColor=none;align=left;verticalAlign=middle;whiteSpace=wrap;rounded=0;" vertex="1" parent="1">
                    <mxGeometry x="390" y="580" width="230" height="30" as="geometry"/>
                </mxCell>
                <mxCell id="16" value="EndPoint2: Bulk Transfer (In)" style="text;html=1;strokeColor=none;fillColor=none;align=left;verticalAlign=middle;whiteSpace=wrap;rounded=0;" vertex="1" parent="1">
                    <mxGeometry x="390" y="660" width="230" height="30" as="geometry"/>
                </mxCell>
                <mxCell id="20" style="edgeStyle=none;html=1;entryX=0.992;entryY=0.168;entryDx=0;entryDy=0;entryPerimeter=0;startArrow=classic;startFill=1;" edge="1" parent="1" source="17" target="5">
                    <mxGeometry relative="1" as="geometry"/>
                </mxCell>
                <mxCell id="17" value="" style="rounded=0;whiteSpace=wrap;html=1;fillColor=none;" vertex="1" parent="1">
                    <mxGeometry x="390" y="490" width="200" height="30" as="geometry"/>
                </mxCell>
                <mxCell id="21" style="edgeStyle=none;html=1;startArrow=none;startFill=0;exitX=1.019;exitY=0.552;exitDx=0;exitDy=0;exitPerimeter=0;" edge="1" parent="1" source="5" target="18">
                    <mxGeometry relative="1" as="geometry">
                        <mxPoint x="190" y="625" as="sourcePoint"/>
                    </mxGeometry>
                </mxCell>
                <mxCell id="18" value="" style="rounded=0;whiteSpace=wrap;html=1;fillColor=none;" vertex="1" parent="1">
                    <mxGeometry x="390" y="610" width="200" height="30" as="geometry"/>
                </mxCell>
                <mxCell id="22" style="edgeStyle=none;html=1;startArrow=none;startFill=0;entryX=1.025;entryY=0.797;entryDx=0;entryDy=0;entryPerimeter=0;" edge="1" parent="1" source="19" target="5">
                    <mxGeometry relative="1" as="geometry">
                        <mxPoint x="190" y="705" as="targetPoint"/>
                    </mxGeometry>
                </mxCell>
                <mxCell id="19" value="" style="rounded=0;whiteSpace=wrap;html=1;fillColor=none;" vertex="1" parent="1">
                    <mxGeometry x="390" y="690" width="200" height="30" as="geometry"/>
                </mxCell>
                <mxCell id="34" style="edgeStyle=none;html=1;startArrow=none;startFill=0;dashed=1;" edge="1" parent="1" source="23">
                    <mxGeometry relative="1" as="geometry">
                        <mxPoint x="210" y="500" as="targetPoint"/>
                    </mxGeometry>
                </mxCell>
                <mxCell id="23" value="- 基本的な制御 (Descriptor自体の読み取りなど)&lt;br&gt;&lt;div style=&quot;&quot;&gt;&lt;span style=&quot;background-color: initial;&quot;&gt;- MSC Bulk-only Transfer向けのコマンド (Class Request) の応答&lt;/span&gt;&lt;/div&gt;&lt;div style=&quot;&quot;&gt;&lt;span style=&quot;background-color: initial;&quot;&gt;&amp;nbsp; - Mass Storage Reset&lt;/span&gt;&lt;/div&gt;&lt;div style=&quot;&quot;&gt;&lt;span style=&quot;background-color: initial;&quot;&gt;&amp;nbsp; - Get Max LUN&lt;/span&gt;&lt;/div&gt;" style="shape=callout;whiteSpace=wrap;html=1;perimeter=calloutPerimeter;fillColor=none;align=left;position2=0.45;size=0;position=0.34;base=8;" vertex="1" parent="1">
                    <mxGeometry x="90" y="330" width="350" height="70" as="geometry"/>
                </mxCell>
                <mxCell id="24" value="" style="rounded=0;whiteSpace=wrap;html=1;fillColor=none;" vertex="1" parent="1">
                    <mxGeometry x="700" y="520" width="40" height="220" as="geometry"/>
                </mxCell>
                <mxCell id="25" value="" style="endArrow=none;dashed=1;html=1;entryX=0.75;entryY=0;entryDx=0;entryDy=0;exitX=0.75;exitY=1;exitDx=0;exitDy=0;" edge="1" parent="1" source="4" target="4">
                    <mxGeometry width="50" height="50" relative="1" as="geometry">
                        <mxPoint x="590" y="620" as="sourcePoint"/>
                        <mxPoint x="640" y="570" as="targetPoint"/>
                    </mxGeometry>
                </mxCell>
                <mxCell id="26" value="RAM Buffer" style="text;html=1;strokeColor=none;fillColor=none;align=left;verticalAlign=middle;whiteSpace=wrap;rounded=0;" vertex="1" parent="1">
                    <mxGeometry x="700" y="490" width="80" height="30" as="geometry"/>
                </mxCell>
                <mxCell id="35" style="edgeStyle=none;html=1;entryX=0.5;entryY=1;entryDx=0;entryDy=0;dashed=1;startArrow=none;startFill=0;" edge="1" parent="1" source="27" target="28">
                    <mxGeometry relative="1" as="geometry"/>
                </mxCell>
                <mxCell id="27" value="- Hostからコマンド・データの要求があるので、中身を読み取り処理&lt;br&gt;- コマンドの応答やRead Dataの送信は Bulk In のEndPointを利用" style="shape=callout;whiteSpace=wrap;html=1;perimeter=calloutPerimeter;fillColor=none;align=left;position2=0;size=0;position=0;base=110;" vertex="1" parent="1">
                    <mxGeometry x="50" y="800" width="380" height="50" as="geometry"/>
                </mxCell>
                <mxCell id="29" value="CBW" style="rounded=0;whiteSpace=wrap;html=1;fillColor=none;" vertex="1" parent="1">
                    <mxGeometry x="260" y="602.5" width="40" height="15" as="geometry"/>
                </mxCell>
                <mxCell id="30" value="REQ_DATA" style="rounded=0;whiteSpace=wrap;html=1;fillColor=none;dashed=1;" vertex="1" parent="1">
                    <mxGeometry x="120" y="602.5" width="135" height="15" as="geometry"/>
                </mxCell>
                <mxCell id="31" value="CSW" style="rounded=0;whiteSpace=wrap;html=1;fillColor=none;" vertex="1" parent="1">
                    <mxGeometry x="125" y="686" width="40" height="15" as="geometry"/>
                </mxCell>
                <mxCell id="32" value="RESP_DATA" style="rounded=0;whiteSpace=wrap;html=1;fillColor=none;dashed=1;" vertex="1" parent="1">
                    <mxGeometry x="167.5" y="686" width="135" height="15" as="geometry"/>
                </mxCell>
                <mxCell id="37" style="edgeStyle=none;html=1;dashed=1;startArrow=none;startFill=0;" edge="1" parent="1" source="38">
                    <mxGeometry relative="1" as="geometry">
                        <mxPoint x="682" y="674" as="targetPoint"/>
                    </mxGeometry>
                </mxCell>
                <mxCell id="38" value="コマンドを処理し、内部のRAMのデータを読み書き" style="shape=callout;whiteSpace=wrap;html=1;perimeter=calloutPerimeter;fillColor=none;align=left;position2=0;size=0;position=0;base=110;" vertex="1" parent="1">
                    <mxGeometry x="520" y="800" width="300" height="50" as="geometry"/>
                </mxCell>
            </root>
        </mxGraphModel>
    </diagram>
</mxfile>